GRF
version=1
nRows=15
nColumns=19
inDegrees=no
endheader
time	1_ground_force_vx	1_ground_force_vy	1_ground_force_vz	1_ground_force_px	1_ground_force_py	1_ground_force_pz	1_ground_torque_x	1_ground_torque_y	1_ground_torque_z	2_ground_force_vx	2_ground_force_vy	2_ground_force_vz	2_ground_force_px	2_ground_force_py	2_ground_force_pz	2_ground_torque_x	2_ground_torque_y	2_ground_torque_z
      0.00000000	     -1.06505322	     -0.00790787	     -0.17776212	      5.74016143	      0.00000000	      9.64354244	      0.00000000	      9.05587496	     -0.00000000	      0.00000000	      0.00000000	      0.00000000	      0.00000000	      0.00000000	      0.00000000	      0.00000000	      0.00000000	      0.00000000
      0.00100000	     -0.56190499	      0.26484320	     -0.19848771	      1.55986633	      0.00000000	      2.69159685	      0.00000000	      2.47908365	      0.00000000	      0.00000000	      0.00000000	      0.00000000	      0.00000000	      0.00000000	      0.00000000	      0.00000000	      0.00000000	      0.00000000
      0.00200000	     -0.15650160	      0.74724719	      0.10548591	      0.24129760	      0.00000000	      0.33869649	      0.00000000	      0.27002165	      0.00000000	      0.00000000	      0.00000000	      0.00000000	      0.00000000	      0.00000000	      0.00000000	      0.00000000	      0.00000000	      0.00000000
      0.00300000	      0.04776581	      0.74026176	      0.04810934	      0.04732405	      0.00000000	      0.27669134	      0.00000000	      0.28907329	      0.00000000	      0.00000000	      0.00000000	      0.00000000	      0.00000000	      0.00000000	      0.00000000	      0.00000000	      0.00000000	      0.00000000
      0.00400000	      0.01294352	      0.17315326	     -0.55638353	     -0.23181681	      0.00000000	      0.55753883	      0.00000000	      0.65579852	     -0.00000000	      0.00000000	      0.00000000	      0.00000000	      0.00000000	      0.00000000	      0.00000000	      0.00000000	      0.00000000	      0.00000000
      0.00500000	      0.25420234	     -0.13049102	     -0.62655946	     -0.27863863	      0.00000000	      0.53051847	      0.00000000	      0.60104852	      0.00000000	      0.00000000	      0.00000000	      0.00000000	      0.00000000	      0.00000000	      0.00000000	      0.00000000	      0.00000000	      0.00000000
      0.00600000	      0.88092218	     -0.03457992	     -0.14114720	     -0.04284997	      0.00000000	      0.19514364	      0.00000000	      0.42049680	     -0.00000000	      0.00000000	      0.00000000	      0.00000000	      0.00000000	      0.00000000	      0.00000000	      0.00000000	      0.00000000	      0.00000000
      0.00700000	      0.93143378	     -0.44127037	      0.13286406	      0.15305140	      0.00000000	      0.05873636	      0.00000000	      0.28525302	     -0.00000000	      0.00000000	      0.00000000	      0.00000000	      0.00000000	      0.00000000	      0.00000000	      0.00000000	      0.00000000	      0.00000000
      0.00800000	      0.44011244	     -1.43896903	     -0.12384508	      0.23209260	      0.00000000	      0.20320661	      0.00000000	      0.10836804	     -0.00000000	      0.00000000	      0.00000000	      0.00000000	      0.00000000	      0.00000000	      0.00000000	      0.00000000	      0.00000000	      0.00000000
      0.00900000	      0.14425300	     -1.65386718	     -0.46999182	      0.32857844	      0.00000000	      0.34087499	      0.00000000	      0.00532837	     -0.00000000	      0.00000000	      0.00000000	      0.00000000	      0.00000000	      0.00000000	      0.00000000	      0.00000000	      0.00000000	      0.00000000
      0.01000000	      0.16242467	     -0.85806670	     -0.54287975	      0.44464082	      0.00000000	      0.46969442	      0.00000000	     -0.10423444	     -0.00000000	      0.00000000	      0.00000000	      0.00000000	      0.00000000	      0.00000000	      0.00000000	      0.00000000	      0.00000000	      0.00000000
      0.01100000	      0.05834669	     -0.07586743	     -0.87375395	      0.31277486	      0.00000000	      0.51960364	      0.00000000	     -0.12914782	      0.00000000	      0.00000000	      0.00000000	      0.00000000	      0.00000000	      0.00000000	      0.00000000	      0.00000000	      0.00000000	      0.00000000
      0.01200000	     -0.39051333	     -0.00471756	     -1.36050831	      0.19888349	      0.00000000	      0.40995083	      0.00000000	      0.03029246	      0.00000000	      0.00000000	      0.00000000	      0.00000000	      0.00000000	      0.00000000	      0.00000000	      0.00000000	      0.00000000	      0.00000000
      0.01300000	     -0.47639151	     -0.29838286	     -1.15550144	      0.16353813	      0.00000000	      0.32041501	      0.00000000	      0.19006256	     -0.00000000	      0.00000000	      0.00000000	      0.00000000	      0.00000000	      0.00000000	      0.00000000	      0.00000000	      0.00000000	      0.00000000
      0.01400000	     -0.00820001	      0.21261020	     -0.36787232	      0.11761020	      0.00000000	      0.23310969	      0.00000000	      0.20747978	     -0.00000000	      0.00000000	      0.00000000	      0.00000000	      0.00000000	      0.00000000	      0.00000000	      0.00000000	      0.00000000	      0.00000000
